<?xml version="1.0" encoding="UTF-8" standalone="no"?>
<svg
   xmlns:dc="http://purl.org/dc/elements/1.1/"
   xmlns:cc="http://creativecommons.org/ns#"
   xmlns:rdf="http://www.w3.org/1999/02/22-rdf-syntax-ns#"
   xmlns:svg="http://www.w3.org/2000/svg"
   xmlns="http://www.w3.org/2000/svg"
   xmlns:sodipodi="http://sodipodi.sourceforge.net/DTD/sodipodi-0.dtd"
   xmlns:inkscape="http://www.inkscape.org/namespaces/inkscape"
   version="1.1"
   width="8.2575331cm"
   height="4.943048cm"
   viewBox="0 0 32509.996 19460.837"
   id="svg514"
   sodipodi:docname="sip_call_kicad.sch.svg"
   inkscape:version="0.92.2 (5c3e80d, 2017-08-06)">
  <metadata
     id="metadata520">
    <rdf:RDF>
      <cc:Work
         rdf:about="">
        <dc:format>image/svg+xml</dc:format>
        <dc:type
           rdf:resource="http://purl.org/dc/dcmitype/StillImage" />
      </cc:Work>
    </rdf:RDF>
  </metadata>
  <defs
     id="defs518" />
  <sodipodi:namedview
     pagecolor="#ffffff"
     bordercolor="#666666"
     borderopacity="1"
     objecttolerance="10"
     gridtolerance="10"
     guidetolerance="10"
     inkscape:pageopacity="0"
     inkscape:pageshadow="2"
     inkscape:window-width="1920"
     inkscape:window-height="1016"
     id="namedview516"
     showgrid="false"
     inkscape:zoom="2.3085256"
     inkscape:cx="168.65798"
     inkscape:cy="59.180762"
     inkscape:window-x="0"
     inkscape:window-y="27"
     inkscape:window-maximized="1"
     inkscape:current-layer="svg514" />
  <title
     id="title2">SVG Picture created as sip_call_kicad.sch.svg date 2017/12/30 15:40:50 </title>
  <desc
     id="desc4">Picture generated by Eeschema-SVG </desc>
  <g
     style="fill:#000000;fill-opacity:1;stroke:#000000;stroke-linecap:round;stroke-linejoin:round;stroke-opacity:1"
     id="g6"
     transform="translate(-27450,-13329.593)" />
  <g
     style="fill:#000000;fill-opacity:0;stroke:#000000;stroke-width:0;stroke-linecap:round;stroke-linejoin:round;stroke-opacity:1"
     id="g8"
     transform="translate(-27450,-13329.593)" />
  <g
     style="fill:#840000;fill-opacity:0;stroke:#840000;stroke-width:0;stroke-linecap:round;stroke-linejoin:round;stroke-opacity:1"
     id="g10"
     transform="translate(-27450,-13329.593)" />
  <g
     style="fill:#ffffc2;fill-opacity:0;stroke:#ffffc2;stroke-width:0;stroke-linecap:round;stroke-linejoin:round;stroke-opacity:1"
     id="g12"
     transform="translate(-27450,-13329.593)" />
  <g
     style="fill:#ffffc2;fill-opacity:0.6;stroke:#ffffc2;stroke-width:0;stroke-linecap:round;stroke-linejoin:round;stroke-opacity:1"
     id="g16"
     transform="translate(-27450,-13329.593)">
    <rect
       x="43000"
       y="21000"
       width="4000"
       height="3000"
       rx="0"
       id="rect14" />
  </g>
  <g
     style="fill:#840000;fill-opacity:0.6;stroke:#840000;stroke-width:0;stroke-linecap:round;stroke-linejoin:round;stroke-opacity:1"
     id="g18"
     transform="translate(-27450,-13329.593)" />
  <g
     style="fill:#840000;fill-opacity:0;stroke:#840000;stroke-width:100;stroke-linecap:round;stroke-linejoin:round;stroke-opacity:1"
     id="g24"
     transform="translate(-27450,-13329.593)">
    <rect
       x="43000"
       y="21000"
       width="4000"
       height="3000"
       rx="0"
       id="rect20" />
    <polyline
       fill="none;"
       points="43750,22750 44250,22750 "
       id="polyline22" />
  </g>
  <g
     style="fill:#840000;fill-opacity:0;stroke:#840000;stroke-width:60;stroke-linecap:round;stroke-linejoin:round;stroke-opacity:1"
     id="g28"
     transform="translate(-27450,-13329.593)">
    <polyline
       fill="none;"
       points="46000,22250 46750,21500 "
       id="polyline26" />
  </g>
  <g
     style="fill:#840000;fill-opacity:1;stroke:#840000;stroke-width:60;stroke-linecap:round;stroke-linejoin:round;stroke-opacity:1"
     id="g32"
     transform="translate(-27450,-13329.593)">
    <polyline
       style="fill-rule:evenodd"
       points="46750,23500 46000,22750 "
       id="polyline30" />
  </g>
  <g
     style="fill:#840000;fill-opacity:0;stroke:#840000;stroke-width:60;stroke-linecap:round;stroke-linejoin:round;stroke-opacity:1"
     id="g42"
     transform="translate(-27450,-13329.593)">
    <polyline
       fill="none;"
       points="46750,23500 47000,23500 "
       id="polyline34" />
    <polyline
       fill="none;"
       points="46750,21500 47000,21500 "
       id="polyline36" />
    <polyline
       fill="none;"
       points="43000,21500 44000,21500 44000,22250 "
       id="polyline38" />
    <polyline
       fill="none;"
       points="44000,22750 44000,23500 43000,23500 "
       id="polyline40" />
  </g>
  <g
     style="fill:#840000;fill-opacity:0;stroke:#840000;stroke-width:200;stroke-linecap:round;stroke-linejoin:round;stroke-opacity:1"
     id="g46"
     transform="translate(-27450,-13329.593)">
    <polyline
       fill="none;"
       points="46000,21750 46000,23250 46000,23250 "
       id="polyline44" />
  </g>
  <g
     style="fill:#840000;fill-opacity:1;stroke:#840000;stroke-width:100;stroke-linecap:round;stroke-linejoin:round;stroke-opacity:1"
     id="g50"
     transform="translate(-27450,-13329.593)">
    <polyline
       style="fill-rule:evenodd"
       points="44000,22750 43750,22250 44250,22250 44000,22750 "
       id="polyline48" />
  </g>
  <g
     style="fill:#840000;fill-opacity:0;stroke:#840000;stroke-width:60;stroke-linecap:round;stroke-linejoin:round;stroke-opacity:1"
     id="g56"
     transform="translate(-27450,-13329.593)">
    <polyline
       fill="none;"
       points="44800,22700 45300,22700 45150,22750 45150,22650 45300,22700 "
       id="polyline52" />
    <polyline
       fill="none;"
       points="44800,22300 45300,22300 45150,22350 45150,22250 45300,22300 "
       id="polyline54" />
  </g>
  <g
     style="fill:#840000;fill-opacity:1;stroke:#840000;stroke-width:60;stroke-linecap:round;stroke-linejoin:round;stroke-opacity:1"
     id="g60"
     transform="translate(-27450,-13329.593)">
    <polyline
       style="fill-rule:evenodd"
       points="46200,23150 46400,22950 46600,23350 46200,23150 46200,23150 "
       id="polyline58" />
  </g>
  <g
     style="fill:#840000;fill-opacity:0;stroke:#840000;stroke-width:60;stroke-linecap:round;stroke-linejoin:round;stroke-opacity:1"
     id="g82"
     transform="translate(-27450,-13329.593)">
    <path
       d="M 43000,21500 H 42000"
       id="path62"
       inkscape:connector-curvature="0" />
    <path
       d="m 42640,21380 h -280"
       id="path64"
       inkscape:connector-curvature="0" />
    <path
       d="m 42500,21380 v -500 l -50,70 -50,50 -40,20"
       id="path66"
       inkscape:connector-curvature="0" />
    <path
       d="M 43000,23500 H 42000"
       id="path68"
       inkscape:connector-curvature="0" />
    <path
       d="m 42360,22920 20,-20 50,-20 h 120 l 40,20 30,20 20,50 v 50 l -20,70 -290,290 h 310"
       id="path70"
       inkscape:connector-curvature="0" />
    <path
       d="m 47000,23500 h 1000"
       id="path72"
       inkscape:connector-curvature="0" />
    <path
       d="m 47330,22880 h 310 l -170,190 h 80 l 40,20 30,20 20,50 v 120 l -20,50 -30,20 -40,30 h -150 l -40,-30 -30,-20"
       id="path74"
       inkscape:connector-curvature="0" />
    <path
       d="m 47000,21500 h 1000"
       id="path76"
       inkscape:connector-curvature="0" />
    <path
       d="m 47590,21040 v 340"
       id="path78"
       inkscape:connector-curvature="0" />
    <path
       d="m 47470,20850 -110,360 h 300"
       id="path80"
       inkscape:connector-curvature="0" />
  </g>
  <g
     style="fill:#008484;fill-opacity:0;stroke:#008484;stroke-width:60;stroke-linecap:round;stroke-linejoin:round;stroke-opacity:1"
     id="g102"
     transform="translate(-27450,-13329.593)">
    <path
       d="m 43120,20260 v 400 l 20,50 30,20 40,30 h 100 l 50,-30 20,-20 20,-50 v -400"
       id="path84"
       inkscape:connector-curvature="0" />
    <path
       d="m 43900,20760 h -280"
       id="path86"
       inkscape:connector-curvature="0" />
    <path
       d="m 43760,20760 v -500 l -50,70 -50,50 -40,20"
       id="path88"
       inkscape:connector-curvature="0" />
    <path
       d="m 45120,20760 v -500 h 190 l 50,20 20,20 20,50 v 70 l -20,50 -20,20 -50,30 h -190"
       id="path90"
       inkscape:connector-curvature="0" />
    <path
       d="m 45900,20710 -20,20 -70,30 h -50 l -70,-30 -50,-50 -20,-40 -20,-100 v -70 l 20,-90 20,-50 50,-50 70,-20 h 50 l 70,20 20,20"
       id="path92"
       inkscape:connector-curvature="0" />
    <path
       d="m 46190,20470 -50,-20 -20,-30 -20,-40 v -30 l 20,-50 20,-20 50,-20 h 100 l 40,20 30,20 20,50 v 30 l -20,40 -30,30 -40,20 h -100 l -50,20 -20,30 -20,50 v 90 l 20,50 20,20 50,30 h 100 l 40,-30 30,-20 20,-50 v -90 l -20,-50 -30,-30 -40,-20"
       id="path94"
       inkscape:connector-curvature="0" />
    <path
       d="m 46860,20760 h -280"
       id="path96"
       inkscape:connector-curvature="0" />
    <path
       d="m 46720,20760 v -500 l -50,70 -50,50 -40,20"
       id="path98"
       inkscape:connector-curvature="0" />
    <path
       d="m 47030,20260 h 330 l -210,500"
       id="path100"
       inkscape:connector-curvature="0" />
  </g>
  <g
     style="fill:#008484;fill-opacity:0;stroke:#008484;stroke-width:0;stroke-linecap:round;stroke-linejoin:round;stroke-opacity:1"
     id="g104"
     transform="translate(-27450,-13329.593)" />
  <g
     style="fill:#840000;fill-opacity:0;stroke:#840000;stroke-width:0;stroke-linecap:round;stroke-linejoin:round;stroke-opacity:1"
     id="g106"
     transform="translate(-27450,-13329.593)" />
  <g
     style="fill:#ffffc2;fill-opacity:0;stroke:#ffffc2;stroke-width:0;stroke-linecap:round;stroke-linejoin:round;stroke-opacity:1"
     id="g108"
     transform="translate(-27450,-13329.593)" />
  <g
     style="fill:#ffffc2;fill-opacity:0.6;stroke:#ffffc2;stroke-width:0;stroke-linecap:round;stroke-linejoin:round;stroke-opacity:1"
     id="g112"
     transform="translate(-27450,-13329.593)">
    <rect
       x="43000"
       y="27000"
       width="4000"
       height="3000"
       rx="0"
       id="rect110" />
  </g>
  <g
     style="fill:#840000;fill-opacity:0.6;stroke:#840000;stroke-width:0;stroke-linecap:round;stroke-linejoin:round;stroke-opacity:1"
     id="g114"
     transform="translate(-27450,-13329.593)" />
  <g
     style="fill:#840000;fill-opacity:0;stroke:#840000;stroke-width:100;stroke-linecap:round;stroke-linejoin:round;stroke-opacity:1"
     id="g120"
     transform="translate(-27450,-13329.593)">
    <rect
       x="43000"
       y="27000"
       width="4000"
       height="3000"
       rx="0"
       id="rect116" />
    <polyline
       fill="none;"
       points="43750,28750 44250,28750 "
       id="polyline118" />
  </g>
  <g
     style="fill:#840000;fill-opacity:0;stroke:#840000;stroke-width:60;stroke-linecap:round;stroke-linejoin:round;stroke-opacity:1"
     id="g124"
     transform="translate(-27450,-13329.593)">
    <polyline
       fill="none;"
       points="46000,28250 46750,27500 "
       id="polyline122" />
  </g>
  <g
     style="fill:#840000;fill-opacity:1;stroke:#840000;stroke-width:60;stroke-linecap:round;stroke-linejoin:round;stroke-opacity:1"
     id="g128"
     transform="translate(-27450,-13329.593)">
    <polyline
       style="fill-rule:evenodd"
       points="46750,29500 46000,28750 "
       id="polyline126" />
  </g>
  <g
     style="fill:#840000;fill-opacity:0;stroke:#840000;stroke-width:60;stroke-linecap:round;stroke-linejoin:round;stroke-opacity:1"
     id="g138"
     transform="translate(-27450,-13329.593)">
    <polyline
       fill="none;"
       points="46750,29500 47000,29500 "
       id="polyline130" />
    <polyline
       fill="none;"
       points="46750,27500 47000,27500 "
       id="polyline132" />
    <polyline
       fill="none;"
       points="43000,27500 44000,27500 44000,28250 "
       id="polyline134" />
    <polyline
       fill="none;"
       points="44000,28750 44000,29500 43000,29500 "
       id="polyline136" />
  </g>
  <g
     style="fill:#840000;fill-opacity:0;stroke:#840000;stroke-width:200;stroke-linecap:round;stroke-linejoin:round;stroke-opacity:1"
     id="g142"
     transform="translate(-27450,-13329.593)">
    <polyline
       fill="none;"
       points="46000,27750 46000,29250 46000,29250 "
       id="polyline140" />
  </g>
  <g
     style="fill:#840000;fill-opacity:1;stroke:#840000;stroke-width:100;stroke-linecap:round;stroke-linejoin:round;stroke-opacity:1"
     id="g146"
     transform="translate(-27450,-13329.593)">
    <polyline
       style="fill-rule:evenodd"
       points="44000,28750 43750,28250 44250,28250 44000,28750 "
       id="polyline144" />
  </g>
  <g
     style="fill:#840000;fill-opacity:0;stroke:#840000;stroke-width:60;stroke-linecap:round;stroke-linejoin:round;stroke-opacity:1"
     id="g152"
     transform="translate(-27450,-13329.593)">
    <polyline
       fill="none;"
       points="44800,28700 45300,28700 45150,28750 45150,28650 45300,28700 "
       id="polyline148" />
    <polyline
       fill="none;"
       points="44800,28300 45300,28300 45150,28350 45150,28250 45300,28300 "
       id="polyline150" />
  </g>
  <g
     style="fill:#840000;fill-opacity:1;stroke:#840000;stroke-width:60;stroke-linecap:round;stroke-linejoin:round;stroke-opacity:1"
     id="g156"
     transform="translate(-27450,-13329.593)">
    <polyline
       style="fill-rule:evenodd"
       points="46200,29150 46400,28950 46600,29350 46200,29150 46200,29150 "
       id="polyline154" />
  </g>
  <g
     style="fill:#840000;fill-opacity:0;stroke:#840000;stroke-width:60;stroke-linecap:round;stroke-linejoin:round;stroke-opacity:1"
     id="g178"
     transform="translate(-27450,-13329.593)">
    <path
       d="M 43000,27500 H 42000"
       id="path158"
       inkscape:connector-curvature="0" />
    <path
       d="m 42640,27380 h -280"
       id="path160"
       inkscape:connector-curvature="0" />
    <path
       d="m 42500,27380 v -500 l -50,70 -50,50 -40,20"
       id="path162"
       inkscape:connector-curvature="0" />
    <path
       d="M 43000,29500 H 42000"
       id="path164"
       inkscape:connector-curvature="0" />
    <path
       d="m 42360,28920 20,-20 50,-20 h 120 l 40,20 30,20 20,50 v 50 l -20,70 -290,290 h 310"
       id="path166"
       inkscape:connector-curvature="0" />
    <path
       d="m 47000,29500 h 1000"
       id="path168"
       inkscape:connector-curvature="0" />
    <path
       d="m 47330,28880 h 310 l -170,190 h 80 l 40,20 30,20 20,50 v 120 l -20,50 -30,20 -40,30 h -150 l -40,-30 -30,-20"
       id="path170"
       inkscape:connector-curvature="0" />
    <path
       d="m 47000,27500 h 1000"
       id="path172"
       inkscape:connector-curvature="0" />
    <path
       d="m 47590,27040 v 340"
       id="path174"
       inkscape:connector-curvature="0" />
    <path
       d="m 47470,26850 -110,360 h 300"
       id="path176"
       inkscape:connector-curvature="0" />
  </g>
  <g
     style="fill:#008484;fill-opacity:0;stroke:#008484;stroke-width:60;stroke-linecap:round;stroke-linejoin:round;stroke-opacity:1"
     id="g196"
     transform="translate(-27450,-13329.593)">
    <path
       d="m 43120,26260 v 400 l 20,50 30,20 40,30 h 100 l 50,-30 20,-20 20,-50 v -400"
       id="path180"
       inkscape:connector-curvature="0" />
    <path
       d="m 43620,26300 20,-20 50,-20 h 120 l 40,20 30,20 20,50 v 50 l -20,70 -290,290 h 310"
       id="path182"
       inkscape:connector-curvature="0" />
    <path
       d="m 45120,26760 v -500 h 190 l 50,20 20,20 20,50 v 70 l -20,50 -20,20 -50,30 h -190"
       id="path184"
       inkscape:connector-curvature="0" />
    <path
       d="m 45900,26710 -20,20 -70,30 h -50 l -70,-30 -50,-50 -20,-40 -20,-100 v -70 l 20,-90 20,-50 50,-50 70,-20 h 50 l 70,20 20,20"
       id="path186"
       inkscape:connector-curvature="0" />
    <path
       d="m 46190,26470 -50,-20 -20,-30 -20,-40 v -30 l 20,-50 20,-20 50,-20 h 100 l 40,20 30,20 20,50 v 30 l -20,40 -30,30 -40,20 h -100 l -50,20 -20,30 -20,50 v 90 l 20,50 20,20 50,30 h 100 l 40,-30 30,-20 20,-50 v -90 l -20,-50 -30,-30 -40,-20"
       id="path188"
       inkscape:connector-curvature="0" />
    <path
       d="m 46860,26760 h -280"
       id="path190"
       inkscape:connector-curvature="0" />
    <path
       d="m 46720,26760 v -500 l -50,70 -50,50 -40,20"
       id="path192"
       inkscape:connector-curvature="0" />
    <path
       d="m 47030,26260 h 330 l -210,500"
       id="path194"
       inkscape:connector-curvature="0" />
  </g>
  <g
     style="fill:#008484;fill-opacity:0;stroke:#008484;stroke-width:0;stroke-linecap:round;stroke-linejoin:round;stroke-opacity:1"
     id="g198"
     transform="translate(-27450,-13329.593)" />
  <g
     style="fill:#840000;fill-opacity:0;stroke:#840000;stroke-width:0;stroke-linecap:round;stroke-linejoin:round;stroke-opacity:1"
     id="g200"
     transform="translate(-27450,-13329.593)" />
  <g
     style="fill:#840000;fill-opacity:0;stroke:#840000;stroke-width:100;stroke-linecap:round;stroke-linejoin:round;stroke-opacity:1"
     id="g204"
     transform="translate(-27450,-13329.593)">
    <rect
       x="36500"
       y="21100"
       width="2000"
       height="800"
       rx="0"
       id="rect202" />
  </g>
  <g
     style="fill:#840000;fill-opacity:0;stroke:#840000;stroke-width:60;stroke-linecap:round;stroke-linejoin:round;stroke-opacity:1"
     id="g210"
     transform="translate(-27450,-13329.593)">
    <path
       d="m 38500,21500 h 500"
       id="path206"
       inkscape:connector-curvature="0" />
    <path
       d="m 36500,21500 h -500"
       id="path208"
       inkscape:connector-curvature="0" />
  </g>
  <g
     style="fill:#008484;fill-opacity:0;stroke:#008484;stroke-width:60;stroke-linecap:round;stroke-linejoin:round;stroke-opacity:1"
     id="g228"
     transform="translate(-27450,-13329.593)">
    <path
       d="m 37410,22560 -160,-240"
       id="path212"
       inkscape:connector-curvature="0" />
    <path
       d="m 37130,22560 v -500 h 190 l 50,20 20,20 20,50 v 70 l -20,50 -20,20 -50,30 h -190"
       id="path214"
       inkscape:connector-curvature="0" />
    <path
       d="m 37890,22560 h -280"
       id="path216"
       inkscape:connector-curvature="0" />
    <path
       d="m 37750,22560 v -500 l -50,70 -50,50 -40,20"
       id="path218"
       inkscape:connector-curvature="0" />
    <path
       d="m 37160,21300 20,-20 50,-20 h 120 l 40,20 30,20 20,50 v 50 l -20,70 -290,290 h 310"
       id="path220"
       inkscape:connector-curvature="0" />
    <path
       d="m 37660,21760 v -500"
       id="path222"
       inkscape:connector-curvature="0" />
    <path
       d="m 37710,21570 140,190"
       id="path224"
       inkscape:connector-curvature="0" />
    <path
       d="m 37850,21420 -190,190"
       id="path226"
       inkscape:connector-curvature="0" />
  </g>
  <g
     style="fill:#008484;fill-opacity:0;stroke:#008484;stroke-width:0;stroke-linecap:round;stroke-linejoin:round;stroke-opacity:1"
     id="g230"
     transform="translate(-27450,-13329.593)" />
  <g
     style="fill:#840000;fill-opacity:0;stroke:#840000;stroke-width:0;stroke-linecap:round;stroke-linejoin:round;stroke-opacity:1"
     id="g232"
     transform="translate(-27450,-13329.593)" />
  <g
     style="fill:#840000;fill-opacity:0;stroke:#840000;stroke-width:100;stroke-linecap:round;stroke-linejoin:round;stroke-opacity:1"
     id="g236"
     transform="translate(-27450,-13329.593)">
    <rect
       x="48100"
       y="17000"
       width="800"
       height="2000"
       rx="0"
       id="rect234" />
  </g>
  <g
     style="fill:#840000;fill-opacity:0;stroke:#840000;stroke-width:60;stroke-linecap:round;stroke-linejoin:round;stroke-opacity:1"
     id="g242"
     transform="translate(-27450,-13329.593)">
    <path
       d="m 48500,17000 v -500"
       id="path238"
       inkscape:connector-curvature="0" />
    <path
       d="m 48500,19000 v 500"
       id="path240"
       inkscape:connector-curvature="0" />
  </g>
  <g
     style="fill:#008484;fill-opacity:0;stroke:#008484;stroke-width:60;stroke-linecap:round;stroke-linejoin:round;stroke-opacity:1"
     id="g262"
     transform="translate(-27450,-13329.593)">
    <path
       d="m 49560,18090 -240,160"
       id="path244"
       inkscape:connector-curvature="0" />
    <path
       d="m 49560,18370 h -500 v -190 l 20,-50 20,-20 50,-20 h 70 l 50,20 20,20 30,50 v 190"
       id="path246"
       inkscape:connector-curvature="0" />
    <path
       d="m 49100,17890 -20,-20 -20,-50 v -120 l 20,-40 20,-30 50,-20 h 50 l 70,20 290,290 v -310"
       id="path248"
       inkscape:connector-curvature="0" />
    <path
       d="m 48420,18350 h 340"
       id="path250"
       inkscape:connector-curvature="0" />
    <path
       d="m 48230,18470 360,110 v -300"
       id="path252"
       inkscape:connector-curvature="0" />
    <path
       d="m 48760,18080 h -500"
       id="path254"
       inkscape:connector-curvature="0" />
    <path
       d="m 48570,18030 190,-140"
       id="path256"
       inkscape:connector-curvature="0" />
    <path
       d="m 48420,17890 190,190"
       id="path258"
       inkscape:connector-curvature="0" />
    <path
       d="m 48260,17730 v -330 l 500,210"
       id="path260"
       inkscape:connector-curvature="0" />
  </g>
  <g
     style="fill:#008484;fill-opacity:0;stroke:#008484;stroke-width:0;stroke-linecap:round;stroke-linejoin:round;stroke-opacity:1"
     id="g264"
     transform="translate(-27450,-13329.593)" />
  <g
     style="fill:#840000;fill-opacity:0;stroke:#840000;stroke-width:0;stroke-linecap:round;stroke-linejoin:round;stroke-opacity:1"
     id="g266"
     transform="translate(-27450,-13329.593)" />
  <g
     style="fill:#840000;fill-opacity:0;stroke:#840000;stroke-width:60;stroke-linecap:round;stroke-linejoin:round;stroke-opacity:1"
     id="g270"
     transform="translate(-27450,-13329.593)">
    <polyline
       fill="none;"
       points="49500,31000 49500,31500 50000,31500 49500,32000 49000,31500 49500,31500 "
       id="polyline268" />
  </g>
  <g
     style="fill:#008484;fill-opacity:0;stroke:#008484;stroke-width:60;stroke-linecap:round;stroke-linejoin:round;stroke-opacity:1"
     id="g278"
     transform="translate(-27450,-13329.593)">
    <path
       d="m 49120,32280 -50,-20 h -70 l -70,20 -50,50 -20,50 -20,90 v 70 l 20,100 20,40 50,50 70,30 h 50 l 70,-30 20,-20 v -170 h -90"
       id="path272"
       inkscape:connector-curvature="0" />
    <path
       d="m 49360,32760 v -500 l 280,500 v -500"
       id="path274"
       inkscape:connector-curvature="0" />
    <path
       d="m 49880,32760 v -500 h 120 l 70,20 50,50 20,50 20,90 v 70 l -20,100 -20,40 -50,50 -70,30 h -120"
       id="path276"
       inkscape:connector-curvature="0" />
  </g>
  <g
     style="fill:#008484;fill-opacity:0;stroke:#008484;stroke-width:0;stroke-linecap:round;stroke-linejoin:round;stroke-opacity:1"
     id="g280"
     transform="translate(-27450,-13329.593)" />
  <g
     style="fill:#840000;fill-opacity:0;stroke:#840000;stroke-width:0;stroke-linecap:round;stroke-linejoin:round;stroke-opacity:1"
     id="g282"
     transform="translate(-27450,-13329.593)" />
  <g
     style="fill:#840000;fill-opacity:0;stroke:#840000;stroke-width:60;stroke-linecap:round;stroke-linejoin:round;stroke-opacity:1"
     id="g290"
     transform="translate(-27450,-13329.593)">
    <polyline
       fill="none;"
       points="48200,14500 48500,14000 "
       id="polyline284" />
    <polyline
       fill="none;"
       points="48500,15000 48500,14000 "
       id="polyline286" />
    <polyline
       fill="none;"
       points="48500,14000 48800,14500 "
       id="polyline288" />
  </g>
  <g
     style="fill:#008484;fill-opacity:0;stroke:#008484;stroke-width:60;stroke-linecap:round;stroke-linejoin:round;stroke-opacity:1"
     id="g302"
     transform="translate(-27450,-13329.593)">
    <path
       d="m 47620,13670 h 380"
       id="path292"
       inkscape:connector-curvature="0" />
    <path
       d="m 47810,13860 v -380"
       id="path294"
       inkscape:connector-curvature="0" />
    <path
       d="m 48190,13360 h 310 l -170,190 h 80 l 40,20 30,20 20,50 v 120 l -20,50 -30,20 -40,30 h -150 l -40,-30 -30,-20"
       id="path296"
       inkscape:connector-curvature="0" />
    <path
       d="m 48650,13360 160,500 170,-500"
       id="path298"
       inkscape:connector-curvature="0" />
    <path
       d="m 49100,13360 h 310 l -170,190 h 80 l 40,20 30,20 20,50 v 120 l -20,50 -30,20 -40,30 h -150 l -40,-30 -30,-20"
       id="path300"
       inkscape:connector-curvature="0" />
  </g>
  <g
     style="fill:#008400;fill-opacity:0;stroke:#008400;stroke-width:60;stroke-linecap:round;stroke-linejoin:round;stroke-opacity:1"
     id="g316"
     transform="translate(-27450,-13329.593)">
    <path
       d="m 39000,21500 h 3000"
       id="path304"
       inkscape:connector-curvature="0" />
    <path
       d="m 33500,23500 h 8500"
       id="path306"
       inkscape:connector-curvature="0" />
    <path
       d="m 41000,23500 v 4000"
       id="path308"
       inkscape:connector-curvature="0" />
    <path
       d="m 41000,27500 h 1000"
       id="path310"
       inkscape:connector-curvature="0" />
    <path
       d="m 40000,21500 v 8000"
       id="path312"
       inkscape:connector-curvature="0" />
    <path
       d="m 40000,29500 h 2000"
       id="path314"
       inkscape:connector-curvature="0" />
  </g>
  <g
     style="fill:#008400;fill-opacity:0;stroke:#008400;stroke-width:0;stroke-linecap:round;stroke-linejoin:round;stroke-opacity:1"
     id="g318"
     transform="translate(-27450,-13329.593)" />
  <g
     style="fill:#008400;fill-opacity:1;stroke:#008400;stroke-width:100;stroke-linecap:round;stroke-linejoin:round;stroke-opacity:1"
     id="g322"
     transform="translate(-27450,-13329.593)">
    <circle
       cx="40000"
       cy="21500"
       r="200"
       id="circle320" />
  </g>
  <g
     style="fill:#008400;fill-opacity:1;stroke:#008400;stroke-width:60;stroke-linecap:round;stroke-linejoin:round;stroke-opacity:1"
     id="g324"
     transform="translate(-27450,-13329.593)" />
  <g
     style="fill:#008400;fill-opacity:0;stroke:#008400;stroke-width:60;stroke-linecap:round;stroke-linejoin:round;stroke-opacity:1"
     id="g328"
     transform="translate(-27450,-13329.593)">
    <path
       d="M 36000,21500 H 33500"
       id="path326"
       inkscape:connector-curvature="0" />
  </g>
  <g
     style="fill:#008400;fill-opacity:0;stroke:#008400;stroke-width:0;stroke-linecap:round;stroke-linejoin:round;stroke-opacity:1"
     id="g330"
     transform="translate(-27450,-13329.593)" />
  <g
     style="fill:#008400;fill-opacity:1;stroke:#008400;stroke-width:100;stroke-linecap:round;stroke-linejoin:round;stroke-opacity:1"
     id="g334"
     transform="translate(-27450,-13329.593)">
    <circle
       cx="41000"
       cy="23500"
       r="200"
       id="circle332" />
  </g>
  <g
     style="fill:#008400;fill-opacity:1;stroke:#008400;stroke-width:60;stroke-linecap:round;stroke-linejoin:round;stroke-opacity:1"
     id="g336"
     transform="translate(-27450,-13329.593)" />
  <g
     style="fill:#008400;fill-opacity:0;stroke:#008400;stroke-width:60;stroke-linecap:round;stroke-linejoin:round;stroke-opacity:1"
     id="g342"
     transform="translate(-27450,-13329.593)">
    <path
       d="m 49500,23500 v 7500"
       id="path338"
       inkscape:connector-curvature="0" />
    <path
       d="M 49500,29500 H 48000"
       id="path340"
       inkscape:connector-curvature="0" />
  </g>
  <g
     style="fill:#008400;fill-opacity:0;stroke:#008400;stroke-width:0;stroke-linecap:round;stroke-linejoin:round;stroke-opacity:1"
     id="g344"
     transform="translate(-27450,-13329.593)" />
  <g
     style="fill:#008400;fill-opacity:1;stroke:#008400;stroke-width:100;stroke-linecap:round;stroke-linejoin:round;stroke-opacity:1"
     id="g348"
     transform="translate(-27450,-13329.593)">
    <circle
       cx="49500"
       cy="29500"
       r="200"
       id="circle346" />
  </g>
  <g
     style="fill:#008400;fill-opacity:1;stroke:#008400;stroke-width:60;stroke-linecap:round;stroke-linejoin:round;stroke-opacity:1"
     id="g350"
     transform="translate(-27450,-13329.593)" />
  <g
     style="fill:#008400;fill-opacity:0;stroke:#008400;stroke-width:60;stroke-linecap:round;stroke-linejoin:round;stroke-opacity:1"
     id="g358"
     transform="translate(-27450,-13329.593)">
    <path
       d="m 48500,27500 h -500"
       id="path352"
       inkscape:connector-curvature="0" />
    <path
       d="m 48500,19500 v 8000"
       id="path354"
       inkscape:connector-curvature="0" />
    <path
       d="m 48000,21500 h 4000"
       id="path356"
       inkscape:connector-curvature="0" />
  </g>
  <g
     style="fill:#008400;fill-opacity:0;stroke:#008400;stroke-width:0;stroke-linecap:round;stroke-linejoin:round;stroke-opacity:1"
     id="g360"
     transform="translate(-27450,-13329.593)" />
  <g
     style="fill:#008400;fill-opacity:1;stroke:#008400;stroke-width:100;stroke-linecap:round;stroke-linejoin:round;stroke-opacity:1"
     id="g364"
     transform="translate(-27450,-13329.593)">
    <circle
       cx="48500"
       cy="21500"
       r="200"
       id="circle362" />
  </g>
  <g
     style="fill:#008400;fill-opacity:1;stroke:#008400;stroke-width:60;stroke-linecap:round;stroke-linejoin:round;stroke-opacity:1"
     id="g366"
     transform="translate(-27450,-13329.593)" />
  <g
     style="fill:#008400;fill-opacity:0;stroke:#008400;stroke-width:60;stroke-linecap:round;stroke-linejoin:round;stroke-opacity:1"
     id="g370"
     transform="translate(-27450,-13329.593)">
    <path
       d="M 48500,16500 V 15000"
       id="path368"
       inkscape:connector-curvature="0" />
  </g>
  <g
     style="fill:#840000;fill-opacity:0;stroke:#840000;stroke-width:60;stroke-linecap:round;stroke-linejoin:round;stroke-opacity:1"
     id="g410"
     transform="translate(-27450,-13329.593)">
    <path
       d="m 27870,21770 v -600"
       id="path372"
       inkscape:connector-curvature="0" />
    <path
       d="m 27870,21400 60,-30 h 110 l 60,30 30,30 30,60 v 170 l -30,50 -30,30 -60,30 h -110 l -60,-30"
       id="path374"
       inkscape:connector-curvature="0" />
    <path
       d="m 28640,21740 -60,30 h -110 l -60,-30 -30,-50 v -230 l 30,-60 60,-30 h 110 l 60,30 30,60 v 50 l -290,60"
       id="path376"
       inkscape:connector-curvature="0" />
    <path
       d="m 29010,21770 -60,-30 -30,-50 v -520"
       id="path378"
       inkscape:connector-curvature="0" />
    <path
       d="m 29320,21770 -60,-30 -30,-50 v -520"
       id="path380"
       inkscape:connector-curvature="0" />
    <path
       d="m 29400,21830 h 460"
       id="path382"
       inkscape:connector-curvature="0" />
    <path
       d="m 30000,21770 v -400"
       id="path384"
       inkscape:connector-curvature="0" />
    <path
       d="m 30000,21170 -30,30 30,30 30,-30 -30,-30 v 60"
       id="path386"
       inkscape:connector-curvature="0" />
    <path
       d="m 30290,21370 v 400"
       id="path388"
       inkscape:connector-curvature="0" />
    <path
       d="m 30290,21430 30,-30 60,-30 h 80 l 60,30 30,60 v 310"
       id="path390"
       inkscape:connector-curvature="0" />
    <path
       d="m 30830,21370 v 600"
       id="path392"
       inkscape:connector-curvature="0" />
    <path
       d="m 30830,21400 60,-30 h 110 l 60,30 30,30 30,60 v 170 l -30,50 -30,30 -60,30 h -110 l -60,-30"
       id="path394"
       inkscape:connector-curvature="0" />
    <path
       d="m 31630,21370 v 400"
       id="path396"
       inkscape:connector-curvature="0" />
    <path
       d="m 31370,21370 v 320 l 30,50 60,30 h 80 l 60,-30 30,-30"
       id="path398"
       inkscape:connector-curvature="0" />
    <path
       d="m 31830,21370 h 230"
       id="path400"
       inkscape:connector-curvature="0" />
    <path
       d="m 31910,21170 v 520 l 30,50 60,30 h 60"
       id="path402"
       inkscape:connector-curvature="0" />
    <path
       d="m 32110,21830 h 460"
       id="path404"
       inkscape:connector-curvature="0" />
    <path
       d="m 33030,21770 h -350"
       id="path406"
       inkscape:connector-curvature="0" />
    <path
       d="m 32860,21770 v -600 l -60,90 -60,50 -60,30"
       id="path408"
       inkscape:connector-curvature="0" />
  </g>
  <g
     style="fill:#840000;fill-opacity:0;stroke:#840000;stroke-width:100;stroke-linecap:round;stroke-linejoin:round;stroke-opacity:1"
     id="g414"
     transform="translate(-27450,-13329.593)">
    <polyline
       fill="none;"
       points="33500,21500 33200,20960 27500,20960 27500,21500 27500,22040 33200,22040 33500,21500 "
       id="polyline412" />
  </g>
  <g
     style="fill:#840000;fill-opacity:0;stroke:#840000;stroke-width:60;stroke-linecap:round;stroke-linejoin:round;stroke-opacity:1"
     id="g452"
     transform="translate(-27450,-13329.593)">
    <path
       d="m 27870,23770 v -600"
       id="path416"
       inkscape:connector-curvature="0" />
    <path
       d="m 27870,23400 60,-30 h 110 l 60,30 30,30 30,60 v 170 l -30,50 -30,30 -60,30 h -110 l -60,-30"
       id="path418"
       inkscape:connector-curvature="0" />
    <path
       d="m 28640,23740 -60,30 h -110 l -60,-30 -30,-50 v -230 l 30,-60 60,-30 h 110 l 60,30 30,60 v 50 l -290,60"
       id="path420"
       inkscape:connector-curvature="0" />
    <path
       d="m 29010,23770 -60,-30 -30,-50 v -520"
       id="path422"
       inkscape:connector-curvature="0" />
    <path
       d="m 29320,23770 -60,-30 -30,-50 v -520"
       id="path424"
       inkscape:connector-curvature="0" />
    <path
       d="m 29400,23830 h 460"
       id="path426"
       inkscape:connector-curvature="0" />
    <path
       d="m 30000,23770 v -400"
       id="path428"
       inkscape:connector-curvature="0" />
    <path
       d="m 30000,23170 -30,30 30,30 30,-30 -30,-30 v 60"
       id="path430"
       inkscape:connector-curvature="0" />
    <path
       d="m 30290,23370 v 400"
       id="path432"
       inkscape:connector-curvature="0" />
    <path
       d="m 30290,23430 30,-30 60,-30 h 80 l 60,30 30,60 v 310"
       id="path434"
       inkscape:connector-curvature="0" />
    <path
       d="m 30830,23370 v 600"
       id="path436"
       inkscape:connector-curvature="0" />
    <path
       d="m 30830,23400 60,-30 h 110 l 60,30 30,30 30,60 v 170 l -30,50 -30,30 -60,30 h -110 l -60,-30"
       id="path438"
       inkscape:connector-curvature="0" />
    <path
       d="m 31630,23370 v 400"
       id="path440"
       inkscape:connector-curvature="0" />
    <path
       d="m 31370,23370 v 320 l 30,50 60,30 h 80 l 60,-30 30,-30"
       id="path442"
       inkscape:connector-curvature="0" />
    <path
       d="m 31830,23370 h 230"
       id="path444"
       inkscape:connector-curvature="0" />
    <path
       d="m 31910,23170 v 520 l 30,50 60,30 h 60"
       id="path446"
       inkscape:connector-curvature="0" />
    <path
       d="m 32110,23830 h 460"
       id="path448"
       inkscape:connector-curvature="0" />
    <path
       d="m 32680,23230 30,-30 60,-30 h 140 l 60,30 30,30 30,60 v 50 l -30,90 -340,340 h 370"
       id="path450"
       inkscape:connector-curvature="0" />
  </g>
  <g
     style="fill:#840000;fill-opacity:0;stroke:#840000;stroke-width:100;stroke-linecap:round;stroke-linejoin:round;stroke-opacity:1"
     id="g456"
     transform="translate(-27450,-13329.593)">
    <polyline
       fill="none;"
       points="33500,23500 33200,22960 27500,22960 27500,23500 27500,24040 33200,24040 33500,23500 "
       id="polyline454" />
  </g>
  <g
     style="fill:#840000;fill-opacity:0;stroke:#840000;stroke-width:60;stroke-linecap:round;stroke-linejoin:round;stroke-opacity:1"
     id="g502"
     transform="translate(-27450,-13329.593)">
    <path
       d="m 52590,21770 -60,-30 -30,-30 -30,-50 v -170 l 30,-60 30,-30 60,-30 h 80 l 60,30 30,30 30,60 v 170 l -30,50 -30,30 -60,30 h -80"
       id="path458"
       inkscape:connector-curvature="0" />
    <path
       d="m 53300,21370 v 400"
       id="path460"
       inkscape:connector-curvature="0" />
    <path
       d="m 53040,21370 v 320 l 30,50 60,30 h 80 l 60,-30 30,-30"
       id="path462"
       inkscape:connector-curvature="0" />
    <path
       d="m 53500,21370 h 230"
       id="path464"
       inkscape:connector-curvature="0" />
    <path
       d="m 53580,21170 v 520 l 30,50 60,30 h 60"
       id="path466"
       inkscape:connector-curvature="0" />
    <path
       d="m 53920,21370 v 600"
       id="path468"
       inkscape:connector-curvature="0" />
    <path
       d="m 53920,21400 60,-30 h 110 l 60,30 30,30 30,60 v 170 l -30,50 -30,30 -60,30 h -110 l -60,-30"
       id="path470"
       inkscape:connector-curvature="0" />
    <path
       d="m 54720,21370 v 400"
       id="path472"
       inkscape:connector-curvature="0" />
    <path
       d="m 54460,21370 v 320 l 30,50 60,30 h 80 l 60,-30 30,-30"
       id="path474"
       inkscape:connector-curvature="0" />
    <path
       d="m 54920,21370 h 230"
       id="path476"
       inkscape:connector-curvature="0" />
    <path
       d="m 55000,21170 v 520 l 30,50 60,30 h 60"
       id="path478"
       inkscape:connector-curvature="0" />
    <path
       d="m 55200,21830 h 460"
       id="path480"
       inkscape:connector-curvature="0" />
    <path
       d="m 55720,21370 h 230"
       id="path482"
       inkscape:connector-curvature="0" />
    <path
       d="m 55800,21170 v 520 l 30,50 60,30 h 60"
       id="path484"
       inkscape:connector-curvature="0" />
    <path
       d="m 56230,21770 -60,-30 -30,-30 -30,-50 v -170 l 30,-60 30,-30 60,-30 h 80 l 60,30 30,30 30,60 v 170 l -30,50 -30,30 -60,30 h -80"
       id="path486"
       inkscape:connector-curvature="0" />
    <path
       d="m 56540,21830 h 460"
       id="path488"
       inkscape:connector-curvature="0" />
    <path
       d="m 57370,21740 -60,30 h -110 l -60,-30 -30,-50 v -230 l 30,-60 60,-30 h 110 l 60,30 30,60 v 50 l -290,60"
       id="path490"
       inkscape:connector-curvature="0" />
    <path
       d="m 57620,21740 60,30 h 120 l 50,-30 30,-50 v -30 l -30,-60 -50,-30 h -90 l -60,-30 -30,-50 v -30 l 30,-60 60,-30 h 90 l 50,30"
       id="path492"
       inkscape:connector-curvature="0" />
    <path
       d="m 58140,21370 v 600"
       id="path494"
       inkscape:connector-curvature="0" />
    <path
       d="m 58140,21400 60,-30 h 110 l 60,30 30,30 30,60 v 170 l -30,50 -30,30 -60,30 h -110 l -60,-30"
       id="path496"
       inkscape:connector-curvature="0" />
    <path
       d="m 58630,21170 h 370 l -200,230 h 80 l 60,30 30,30 30,50 v 150 l -30,50 -30,30 -60,30 h -170 l -60,-30 -20,-30"
       id="path498"
       inkscape:connector-curvature="0" />
    <path
       d="m 59220,21230 30,-30 60,-30 h 140 l 60,30 30,30 30,60 v 50 l -30,90 -340,340 h 370"
       id="path500"
       inkscape:connector-curvature="0" />
  </g>
  <g
     style="fill:#840000;fill-opacity:0;stroke:#840000;stroke-width:100;stroke-linecap:round;stroke-linejoin:round;stroke-opacity:1"
     id="g506"
     transform="translate(-27450,-13329.593)">
    <polyline
       fill="none;"
       points="52000,21500 52300,22040 59910,22040 59910,21500 59910,20960 52300,20960 52000,21500 "
       id="polyline504" />
  </g>
  <g
     style="fill:#840000;fill-opacity:0;stroke:#840000;stroke-width:60;stroke-linecap:round;stroke-linejoin:round;stroke-opacity:1"
     id="g508"
     transform="translate(-27450,-13329.593)" />
  <g
     style="fill:#008400;fill-opacity:0;stroke:#008400;stroke-width:60;stroke-linecap:round;stroke-linejoin:round;stroke-opacity:1"
     id="g512"
     transform="translate(-27450,-13329.593)">
    <path
       d="m 48000,23500 h 1500"
       id="path510"
       inkscape:connector-curvature="0" />
  </g>
</svg>
